<svg xmlns="http://www.w3.org/2000/svg" xmlns:xlink="http://www.w3.org/1999/xlink" fill="none" version="1.1" width="20" height="20" viewBox="0 0 20 20"><g><g><path d="M12.4996,2.875L12.4996,2.125C12.4996,1.986875,12.6114,1.875,12.7496,1.875L17.8746,1.875C18.0127,1.875,18.1246,1.986875,18.1246,2.125L18.1246,7.25C18.1246,7.38812,18.0127,7.5,17.8746,7.5L17.1246,7.5C16.9864,7.5,16.8746,7.38812,16.8746,7.25L16.8746,4.00875L10.23957,10.64437C10.14207,10.74187,9.98332,10.74187,9.8852,10.64437L9.35582,10.11375C9.2577,10.01625,9.2577,9.85812,9.35582,9.76062L15.9908,3.125L12.7496,3.125C12.6114,3.125,12.4996,3.01312,12.4996,2.875ZM3.125,16.875L15.625,16.875L15.625,10.25C15.625,10.11188,15.7369,10,15.875,10L16.625,10C16.7631,10,16.875,10.11188,16.875,10.25L16.875,17.625C16.875,17.9012,16.6512,18.125,16.375,18.125L2.375,18.125C2.09875,18.125,1.875,17.9012,1.875,17.625L1.875,3.625C1.875,3.34875,2.09875,3.125,2.375,3.125L9.75,3.125C9.88813,3.125,10,3.23688,10,3.375L10,4.125C10,4.26312,9.88813,4.375,9.75,4.375L3.125,4.375L3.125,16.875Z" fill-rule="evenodd" fill="#FFFFFF" fill-opacity="1"/></g></g></svg>